<svg width="96" height="96" xmlns="http://www.w3.org/2000/svg" xmlns:xlink="http://www.w3.org/1999/xlink" xml:space="preserve" overflow="hidden"><defs><clipPath id="clip0"><rect x="734" y="159" width="96" height="96"/></clipPath></defs><g clip-path="url(#clip0)" transform="translate(-734 -159)"><path d="M790 191 805 191 805 193 790 193Z" fill="#0070C0"/><path d="M790 197 805 197 805 199 790 199Z" fill="#0070C0"/><path d="M790 203 800 203 800 205 790 205Z" fill="#0070C0"/><path d="M821 183 815 183 815 178.6C815 178.173 814.729 177.793 814.325 177.654 803.84 174.154 792.508 174.115 782 177.544 771.492 174.115 760.16 174.153 749.675 177.653 749.271 177.792 748.999 178.173 749 178.6L749 183 743 183C742.448 183 742 183.448 742 184L742 232C742 232.552 742.448 233 743 233L775.1 233C775.52 234.759 777.092 236 778.9 236L785.1 236C786.908 236 788.48 234.759 788.9 233L821 233C821.552 233 822 232.552 822 232L822 184C822 183.448 821.552 183 821 183ZM813 179.32 813 225.22C803.22 222.256 792.78 222.256 783 225.22L783 179.32C792.761 176.227 803.239 176.227 813 179.32ZM751 179.32C760.761 176.227 771.239 176.227 781 179.32L781 225.22C771.22 222.256 760.78 222.256 751 225.22ZM820 231 788 231C787.448 231 787 231.448 787 232L787 232.1C787 233.149 786.149 234 785.1 234L778.9 234C777.851 234 777 233.149 777 232.1L777 232C777 231.448 776.552 231 776 231L744 231 744 185 749 185 749 226.6C749 227.152 749.447 227.6 750 227.6 750.11 227.6 750.22 227.582 750.325 227.546 760.5 224.153 771.5 224.153 781.675 227.546 781.692 227.55 781.708 227.552 781.725 227.554 781.799 227.576 781.875 227.589 781.952 227.592 781.968 227.592 781.984 227.6 782 227.6 782.016 227.6 782.025 227.595 782.037 227.594 782.113 227.592 782.189 227.58 782.262 227.56 782.278 227.56 782.295 227.554 782.312 227.549L782.325 227.549C792.5 224.156 803.5 224.156 813.675 227.549 813.78 227.584 813.89 227.601 814 227.6 814.552 227.6 815 227.152 815 226.6L815 185 820 185Z" fill="#0070C0"/></g></svg>